<svg width="40" height="40" viewBox="0 0 40 40" fill="none" xmlns="http://www.w3.org/2000/svg">
<path d="M35.656 34.3435L28.7029 27.3748C31.1105 24.6227 32.3541 21.0426 32.1713 17.3906C31.9885 13.7387 30.3936 10.3007 27.7233 7.80275C25.0529 5.30481 21.5163 3.94247 17.8603 4.00343C14.2042 4.06438 10.715 5.54386 8.12943 8.12943C5.54386 10.715 4.06438 14.2042 4.00343 17.8603C3.94247 21.5163 5.30481 25.0529 7.80275 27.7233C10.3007 30.3936 13.7387 31.9885 17.3906 32.1713C21.0426 32.3541 24.6227 31.1105 27.3748 28.7029L34.3435 35.656C34.5176 35.8301 34.7537 35.9279 34.9998 35.9279C35.2459 35.9279 35.482 35.8301 35.656 35.656C35.8301 35.482 35.9279 35.2459 35.9279 34.9998C35.9279 34.7537 35.8301 34.5176 35.656 34.3435ZM5.93729 18.1248C5.93729 15.7143 6.65208 13.358 7.99126 11.3538C9.33044 9.34956 11.2339 7.78745 13.4608 6.86501C15.6878 5.94257 18.1383 5.70121 20.5025 6.17147C22.8666 6.64173 25.0382 7.80248 26.7427 9.50693C28.4471 11.2114 29.6079 13.383 30.0781 15.7471C30.5484 18.1113 30.307 20.5618 29.3846 22.7887C28.4621 25.0157 26.9 26.9191 24.8958 28.2583C22.8916 29.5975 20.5353 30.3123 18.1248 30.3123C14.8937 30.3082 11.7962 29.0228 9.51149 26.7381C7.22679 24.4534 5.94143 21.3558 5.93729 18.1248Z" fill="black"/>
</svg>
