<svg width="24" height="25" viewBox="0 0 24 25" fill="none" xmlns="http://www.w3.org/2000/svg">
<path fill-rule="evenodd" clip-rule="evenodd" d="M7.48111 1.25295C8.65297 1.199 9.02661 1.18701 12.0117 1.18701C14.9968 1.18701 15.3705 1.2 16.5413 1.25295C17.7122 1.3059 18.5114 1.49271 19.2107 1.76345C19.943 2.04018 20.6074 2.47276 21.1568 3.03222C21.7163 3.58069 22.1479 4.24404 22.4236 4.97733C22.6953 5.67665 22.8812 6.47588 22.9351 7.64474C22.9891 8.8186 23.001 9.19224 23.001 12.1763C23.001 15.1614 22.9881 15.5351 22.9351 16.7069C22.8822 17.8758 22.6953 18.675 22.4236 19.3744C22.1479 20.1077 21.7156 20.7722 21.1568 21.3215C20.6074 21.8809 19.943 22.3125 19.2107 22.5882C18.5114 22.86 17.7122 23.0458 16.5433 23.0997C15.3705 23.1537 14.9968 23.1657 12.0117 23.1657C9.02661 23.1657 8.65297 23.1527 7.48111 23.0997C6.31225 23.0468 5.51302 22.86 4.8137 22.5882C4.08034 22.3125 3.41588 21.8802 2.86659 21.3215C2.30752 20.7727 1.87487 20.1085 1.59882 19.3753C1.32809 18.676 1.14227 17.8768 1.08832 16.7079C1.03437 15.5341 1.02238 15.1604 1.02238 12.1763C1.02238 9.19124 1.03537 8.8176 1.08832 7.64674C1.14127 6.47588 1.32809 5.67665 1.59882 4.97733C1.87528 4.24412 2.30825 3.58 2.86759 3.03122C3.4161 2.47226 4.07989 2.03963 4.8127 1.76345C5.51203 1.49271 6.31125 1.3069 7.48011 1.25295H7.48111ZM16.4524 3.23103C15.2935 3.17808 14.9459 3.16709 12.0117 3.16709C9.07756 3.16709 8.7299 3.17808 7.57103 3.23103C6.49907 3.27998 5.91763 3.45881 5.53001 3.60966C5.01751 3.80947 4.65086 4.04624 4.26623 4.43086C3.90163 4.78557 3.62104 5.21738 3.44503 5.69463C3.29418 6.08226 3.11535 6.66369 3.0664 7.73565C3.01345 8.89453 3.00246 9.24219 3.00246 12.1763C3.00246 15.1105 3.01345 15.4582 3.0664 16.617C3.11535 17.689 3.29418 18.2704 3.44503 18.658C3.62086 19.1346 3.90159 19.5672 4.26623 19.9218C4.62089 20.2865 5.05347 20.5672 5.53001 20.743C5.91763 20.8939 6.49907 21.0727 7.57103 21.1217C8.7299 21.1746 9.07656 21.1856 12.0117 21.1856C14.9469 21.1856 15.2935 21.1746 16.4524 21.1217C17.5244 21.0727 18.1058 20.8939 18.4934 20.743C19.0059 20.5432 19.3726 20.3064 19.7572 19.9218C20.1218 19.5672 20.4026 19.1346 20.5784 18.658C20.7292 18.2704 20.9081 17.689 20.957 16.617C21.01 15.4582 21.021 15.1105 21.021 12.1763C21.021 9.24219 21.01 8.89453 20.957 7.73565C20.9081 6.66369 20.7292 6.08226 20.5784 5.69463C20.3786 5.18213 20.1418 4.81549 19.7572 4.43086C19.4025 4.06629 18.9707 3.7857 18.4934 3.60966C18.1058 3.45881 17.5244 3.27998 16.4524 3.23103V3.23103ZM10.6081 15.5641C11.392 15.8904 12.2648 15.9344 13.0776 15.6887C13.8904 15.4429 14.5926 14.9226 15.0644 14.2166C15.5361 13.5106 15.7481 12.6627 15.6642 11.8178C15.5803 10.9728 15.2056 10.1832 14.6042 9.58386C14.2208 9.20071 13.7572 8.90733 13.2468 8.72484C12.7365 8.54235 12.192 8.47529 11.6526 8.5285C11.1131 8.5817 10.5922 8.75384 10.1273 9.03252C9.66245 9.31121 9.26512 9.6895 8.96398 10.1402C8.66283 10.5908 8.46535 11.1027 8.38575 11.6388C8.30615 12.175 8.34642 12.7221 8.50366 13.2408C8.6609 13.7595 8.93119 14.2369 9.29507 14.6387C9.65896 15.0404 10.1074 15.3564 10.6081 15.5641ZM8.01759 8.18222C8.54211 7.6577 9.1648 7.24164 9.85011 6.95777C10.5354 6.6739 11.2699 6.5278 12.0117 6.5278C12.7535 6.5278 13.488 6.6739 14.1733 6.95777C14.8586 7.24163 15.4813 7.6577 16.0058 8.18222C16.5304 8.70673 16.9464 9.32942 17.2303 10.0147C17.5141 10.7 17.6603 11.4346 17.6603 12.1763C17.6603 12.9181 17.5141 13.6526 17.2303 14.3379C16.9464 15.0233 16.5304 15.6459 16.0058 16.1705C14.9465 17.2298 13.5098 17.8249 12.0117 17.8249C10.5136 17.8249 9.0769 17.2298 8.01759 16.1705C6.95828 15.1112 6.36317 13.6744 6.36317 12.1763C6.36317 10.6783 6.95828 9.24153 8.01759 8.18222V8.18222ZM18.913 7.36901C19.043 7.2464 19.147 7.09895 19.219 6.9354C19.291 6.77186 19.3294 6.59553 19.332 6.41686C19.3346 6.2382 19.3014 6.06083 19.2342 5.89525C19.167 5.72967 19.0673 5.57926 18.9409 5.45291C18.8146 5.32656 18.6642 5.22685 18.4986 5.15967C18.333 5.0925 18.1557 5.05923 17.977 5.06183C17.7983 5.06444 17.622 5.10286 17.4585 5.17484C17.2949 5.24681 17.1475 5.35086 17.0248 5.48084C16.7864 5.73363 16.6558 6.06939 16.6609 6.41686C16.666 6.76433 16.8062 7.09615 17.052 7.34188C17.2977 7.5876 17.6295 7.72789 17.977 7.73295C18.3245 7.73802 18.6602 7.60747 18.913 7.36901V7.36901Z" fill="black"/>
</svg>
