<svg width="57" height="57" viewBox="0 0 57 57" fill="none" xmlns="http://www.w3.org/2000/svg">
<path d="M14.25 33.25H33.25V28.5H14.25V33.25ZM14.25 26.125H42.75V21.375H14.25V26.125ZM14.25 19H42.75V14.25H14.25V19ZM4.75 52.25V9.5C4.75 8.19375 5.2155 7.07512 6.1465 6.14412C7.07592 5.21471 8.19375 4.75 9.5 4.75H47.5C48.8063 4.75 49.9249 5.21471 50.8559 6.14412C51.7853 7.07512 52.25 8.19375 52.25 9.5V38C52.25 39.3063 51.7853 40.4249 50.8559 41.3559C49.9249 42.2853 48.8063 42.75 47.5 42.75H14.25L4.75 52.25Z" fill="white"/>
</svg>
