<svg width="55" height="55" viewBox="0 0 55 55" fill="none" xmlns="http://www.w3.org/2000/svg">
<path d="M46.5939 8.29792C44.1109 5.7898 41.1534 3.80118 37.8938 2.44805C34.6342 1.09492 31.1378 0.40437 27.6085 0.416665C12.821 0.416665 0.768913 12.4687 0.768913 27.2562C0.768913 31.9958 2.01475 36.6 4.34391 40.6625L0.552246 54.5833L14.771 50.8458C18.6981 52.9854 23.1127 54.1229 27.6085 54.1229C42.396 54.1229 54.4481 42.0708 54.4481 27.2833C54.4481 20.1062 51.6585 13.3625 46.5939 8.29792ZM27.6085 49.5729C23.6002 49.5729 19.6731 48.4896 16.2335 46.4583L15.421 45.9708L6.971 48.1917L9.21891 39.9583L8.67725 39.1188C6.45031 35.5626 5.26783 31.4521 5.26475 27.2562C5.26475 14.9604 15.2856 4.93958 27.5814 4.93958C33.5397 4.93958 39.146 7.26875 43.3439 11.4937C45.4225 13.5628 47.0698 16.0239 48.1902 18.7343C49.3106 21.4447 49.8819 24.3505 49.871 27.2833C49.9252 39.5792 39.9043 49.5729 27.6085 49.5729ZM39.8502 32.8896C39.1731 32.5646 35.8689 30.9396 35.2731 30.6958C34.6502 30.4792 34.2168 30.3708 33.7564 31.0208C33.296 31.6979 32.0231 33.2146 31.6439 33.6479C31.2647 34.1083 30.8585 34.1625 30.1814 33.8104C29.5043 33.4854 27.3377 32.7542 24.7918 30.4792C22.7877 28.6917 21.4606 26.4979 21.0543 25.8208C20.6752 25.1437 21.0002 24.7917 21.3522 24.4396C21.6502 24.1417 22.0293 23.6542 22.3543 23.275C22.6793 22.8958 22.8147 22.5979 23.0314 22.1646C23.2481 21.7042 23.1397 21.325 22.9772 21C22.8147 20.675 21.4606 17.3708 20.9189 16.0167C20.3772 14.7167 19.8085 14.8792 19.4022 14.8521H18.1022C17.6418 14.8521 16.9377 15.0146 16.3147 15.6917C15.7189 16.3687 13.9856 17.9937 13.9856 21.2979C13.9856 24.6021 16.396 27.7979 16.721 28.2313C17.046 28.6917 21.4606 35.4625 28.1772 38.3604C29.7752 39.0646 31.021 39.4708 31.996 39.7688C33.5939 40.2833 35.0564 40.2021 36.221 40.0396C37.521 39.85 40.2022 38.4146 40.7439 36.8438C41.3127 35.2729 41.3127 33.9458 41.1231 33.6479C40.9335 33.35 40.5272 33.2146 39.8502 32.8896Z" fill="white"/>
</svg>
