<svg width="65" height="65" viewBox="0 0 65 65" fill="none" xmlns="http://www.w3.org/2000/svg">
<path d="M49.5624 15.4646C49.3118 15.2135 49.0142 15.0143 48.6866 14.8784C48.3589 14.7425 48.0077 14.6725 47.653 14.6725C47.2983 14.6725 46.9471 14.7425 46.6194 14.8784C46.2918 15.0143 45.9942 15.2135 45.7436 15.4646L32.4999 28.6812L19.2561 15.4375C19.0054 15.1868 18.7077 14.9879 18.3801 14.8522C18.0525 14.7165 17.7014 14.6466 17.3467 14.6466C16.9921 14.6466 16.641 14.7165 16.3134 14.8522C15.9858 14.9879 15.6881 15.1868 15.4374 15.4375C15.1866 15.6882 14.9877 15.9859 14.852 16.3135C14.7163 16.6411 14.6465 16.9923 14.6465 17.3469C14.6465 17.7015 14.7163 18.0526 14.852 18.3802C14.9877 18.7078 15.1866 19.0055 15.4374 19.2562L28.6811 32.5L15.4374 45.7437C15.1866 45.9945 14.9877 46.2922 14.852 46.6198C14.7163 46.9474 14.6465 47.2985 14.6465 47.6531C14.6465 48.0077 14.7163 48.3589 14.852 48.6865C14.9877 49.0141 15.1866 49.3117 15.4374 49.5625C15.6881 49.8132 15.9858 50.0121 16.3134 50.1478C16.641 50.2835 16.9921 50.3534 17.3467 50.3534C17.7014 50.3534 18.0525 50.2835 18.3801 50.1478C18.7077 50.0121 19.0054 49.8132 19.2561 49.5625L32.4999 36.3187L45.7436 49.5625C45.9944 49.8132 46.292 50.0121 46.6196 50.1478C46.9473 50.2835 47.2984 50.3534 47.653 50.3534C48.0076 50.3534 48.3587 50.2835 48.6863 50.1478C49.014 50.0121 49.3116 49.8132 49.5624 49.5625C49.8131 49.3117 50.012 49.0141 50.1477 48.6865C50.2834 48.3589 50.3533 48.0077 50.3533 47.6531C50.3533 47.2985 50.2834 46.9474 50.1477 46.6198C50.012 46.2922 49.8131 45.9945 49.5624 45.7437L36.3186 32.5L49.5624 19.2562C50.5915 18.2271 50.5915 16.4937 49.5624 15.4646Z" fill="white"/>
</svg>
