<svg width="20" height="25" viewBox="0 0 20 25" fill="none" xmlns="http://www.w3.org/2000/svg">
<path d="M10.0478 13.2867C11.8869 13.2867 13.3779 11.7957 13.3779 9.95656C13.3779 8.1174 11.8869 6.62646 10.0478 6.62646C8.20859 6.62646 6.71765 8.1174 6.71765 9.95656C6.71765 11.7957 8.20859 13.2867 10.0478 13.2867Z" stroke="black" stroke-width="1.8" stroke-linecap="round" stroke-linejoin="round"/>
<path d="M10.0477 1.07617C7.69249 1.07617 5.43376 2.01177 3.76839 3.67714C2.10302 5.34251 1.16742 7.60124 1.16742 9.95644C1.16742 12.0566 1.61365 13.4308 2.83247 14.9516L10.0477 23.2768L17.2629 14.9516C18.4817 13.4308 18.928 12.0566 18.928 9.95644C18.928 7.60124 17.9924 5.34251 16.327 3.67714C14.6616 2.01177 12.4029 1.07617 10.0477 1.07617V1.07617Z" stroke="black" stroke-width="1.8" stroke-linecap="round" stroke-linejoin="round"/>
</svg>
