<svg width="22" height="22" viewBox="0 0 22 22" fill="none" xmlns="http://www.w3.org/2000/svg">
<path d="M21.8191 17.286C21.7687 16.9744 21.5733 16.7081 21.2808 16.5499L16.9526 13.9998L16.917 13.9798C16.7355 13.889 16.5351 13.8424 16.3322 13.844C15.9695 13.844 15.6232 13.9813 15.3829 14.2223L14.1054 15.5004C14.0508 15.5523 13.8726 15.6275 13.8186 15.6302C13.8038 15.629 12.3322 15.523 9.62299 12.8135C6.91861 10.1097 6.80388 8.63358 6.80297 8.63358C6.80448 8.5581 6.87876 8.38057 6.9316 8.32562L8.02095 7.23656C8.40471 6.8519 8.51974 6.21422 8.29209 5.72027L5.88632 1.19345C5.7115 0.833548 5.37183 0.611328 4.99502 0.611328C4.72842 0.611328 4.47118 0.721834 4.27009 0.922617L1.30062 3.88545C1.0159 4.16866 0.770733 4.66382 0.717291 5.06237C0.691325 5.25288 0.164459 9.80054 6.39929 16.0363C11.6924 21.3288 15.8198 21.74 16.9596 21.74C17.0984 21.7418 17.2371 21.7346 17.375 21.7186C17.7724 21.6654 18.2669 21.4209 18.5498 21.1374L21.5169 18.1706C21.759 17.9273 21.8695 17.6057 21.8191 17.286V17.286Z" fill="black"/>
</svg>
