<svg width="57" height="57" viewBox="0 0 57 57" fill="none" xmlns="http://www.w3.org/2000/svg">
<g clip-path="url(#clip0_60_624)">
<path d="M28.5 0C20.7658 0 19.7933 0.035625 16.7544 0.171C13.7156 0.3135 11.6458 0.790875 9.8325 1.49625C7.93046 2.21167 6.20763 3.33388 4.78444 4.78444C3.33477 6.20835 2.21269 7.93098 1.49625 9.8325C0.790875 11.6423 0.309938 13.7156 0.171 16.7437C0.035625 19.7897 0 20.7587 0 28.5036C0 36.2413 0.035625 37.2103 0.171 40.2491C0.3135 43.2844 0.790875 45.3542 1.49625 47.1675C2.22656 49.0414 3.19913 50.6302 4.78444 52.2156C6.36619 53.8009 7.95506 54.777 9.82894 55.5037C11.6458 56.2091 13.7121 56.6901 16.7473 56.829C19.7897 56.9644 20.7587 57 28.5 57C36.2413 57 37.2068 56.9644 40.2491 56.829C43.2808 56.6865 45.3577 56.2091 47.1711 55.5037C49.0719 54.788 50.7935 53.6658 52.2156 52.2156C53.8009 50.6302 54.7734 49.0414 55.5037 47.1675C56.2056 45.3542 56.6865 43.2844 56.829 40.2491C56.9644 37.2103 57 36.2413 57 28.5C57 20.7587 56.9644 19.7897 56.829 16.7473C56.6865 13.7156 56.2056 11.6423 55.5037 9.8325C54.7874 7.93093 53.6653 6.20828 52.2156 4.78444C50.7928 3.33334 49.0699 2.21105 47.1675 1.49625C45.3506 0.790875 43.2772 0.309938 40.2456 0.171C37.2032 0.035625 36.2378 0 28.4929 0H28.5036H28.5ZM25.9457 5.13713H28.5036C36.1131 5.13713 37.0144 5.16206 40.0176 5.301C42.7963 5.42569 44.3068 5.89237 45.3114 6.28069C46.6403 6.79725 47.5914 7.41712 48.5889 8.41463C49.5864 9.41212 50.2028 10.3597 50.7193 11.6921C51.1112 12.6932 51.5743 14.2037 51.699 16.9824C51.8379 19.9856 51.8664 20.8869 51.8664 28.4929C51.8664 36.0988 51.8379 37.0037 51.699 40.0069C51.5743 42.7856 51.1076 44.2926 50.7193 45.2972C50.2624 46.5347 49.5331 47.6536 48.5854 48.5711C47.5879 49.5686 46.6403 50.1849 45.3079 50.7015C44.3104 51.0934 42.7999 51.5565 40.0176 51.6847C37.0144 51.8201 36.1131 51.8522 28.5036 51.8522C20.8941 51.8522 19.9892 51.8201 16.986 51.6847C14.2073 51.5565 12.7003 51.0934 11.6957 50.7015C10.4577 50.2452 9.33776 49.5173 8.41819 48.5711C7.46967 47.6521 6.73926 46.5322 6.28069 45.2936C5.89237 44.2926 5.42569 42.7821 5.301 40.0033C5.16563 37.0001 5.13713 36.0988 5.13713 28.4858C5.13713 20.8762 5.16563 19.9785 5.301 16.9753C5.42925 14.1966 5.89237 12.6861 6.28425 11.6814C6.80081 10.3526 7.42069 9.40144 8.41819 8.40394C9.41569 7.40644 10.3633 6.79012 11.6957 6.27356C12.7003 5.88169 14.2073 5.41856 16.986 5.29031C19.6151 5.16919 20.634 5.13356 25.9457 5.13V5.13713ZM43.7154 9.86812C43.2663 9.86812 42.8216 9.95659 42.4067 10.1285C41.9917 10.3003 41.6147 10.5522 41.2971 10.8698C40.9796 11.1874 40.7276 11.5644 40.5558 11.9793C40.3839 12.3943 40.2954 12.839 40.2954 13.2881C40.2954 13.7372 40.3839 14.182 40.5558 14.5969C40.7276 15.0118 40.9796 15.3889 41.2971 15.7064C41.6147 16.024 41.9917 16.2759 42.4067 16.4478C42.8216 16.6197 43.2663 16.7081 43.7154 16.7081C44.6225 16.7081 45.4924 16.3478 46.1337 15.7064C46.7751 15.0651 47.1354 14.1952 47.1354 13.2881C47.1354 12.3811 46.7751 11.5112 46.1337 10.8698C45.4924 10.2284 44.6225 9.86812 43.7154 9.86812ZM28.5036 13.8652C26.5623 13.835 24.6343 14.1912 22.832 14.9131C21.0297 15.6351 19.389 16.7084 18.0054 18.0705C16.6219 19.4326 15.5231 21.0564 14.7731 22.8472C14.0231 24.6381 13.6369 26.5602 13.6369 28.5018C13.6369 30.4433 14.0231 32.3655 14.7731 34.1563C15.5231 35.9472 16.6219 37.5709 18.0054 38.9331C19.389 40.2952 21.0297 41.3685 22.832 42.0904C24.6343 42.8124 26.5623 43.1686 28.5036 43.1383C32.3459 43.0784 36.0105 41.5099 38.7065 38.7716C41.4025 36.0332 42.9135 32.3446 42.9135 28.5018C42.9135 24.659 41.4025 20.9703 38.7065 18.232C36.0105 15.4936 32.3459 13.9252 28.5036 13.8652ZM28.5036 18.9988C31.0234 18.9988 33.4401 19.9998 35.2219 21.7816C37.0037 23.5635 38.0047 25.9801 38.0047 28.5C38.0047 31.0199 37.0037 33.4365 35.2219 35.2184C33.4401 37.0002 31.0234 38.0012 28.5036 38.0012C25.9837 38.0012 23.567 37.0002 21.7852 35.2184C20.0034 33.4365 19.0024 31.0199 19.0024 28.5C19.0024 25.9801 20.0034 23.5635 21.7852 21.7816C23.567 19.9998 25.9837 18.9988 28.5036 18.9988Z" fill="white"/>
</g>
<defs>
<clipPath id="clip0_60_624">
<rect width="57" height="57" fill="white"/>
</clipPath>
</defs>
</svg>
