<svg width="50" height="50" viewBox="0 0 50 50" fill="none" xmlns="http://www.w3.org/2000/svg">
<path d="M49.9717 39.4592C49.8524 38.7218 49.3903 38.0917 48.6981 37.7173L38.4588 31.6827L38.3745 31.6355C37.9452 31.4206 37.471 31.3104 36.9909 31.314C36.1331 31.314 35.3138 31.6391 34.7452 32.2093L31.7231 35.2337C31.5938 35.3566 31.1724 35.5345 31.0445 35.5409C31.0095 35.5381 27.5281 35.2873 21.1188 28.8754C14.7209 22.4772 14.4494 18.984 14.4473 18.984C14.4509 18.8054 14.6266 18.3853 14.7516 18.2552L17.3287 15.6781C18.2366 14.7678 18.5087 13.2588 17.9702 12.0899L12.2787 1.37754C11.8652 0.525865 11.0616 0 10.1701 0C9.53943 0 8.93086 0.261504 8.45514 0.73664L1.43012 7.74794C0.75655 8.41813 0.176548 9.5899 0.050119 10.533C-0.0113098 10.9839 -1.25774 21.7455 13.4923 36.5019C26.0145 49.0262 35.7788 49.9994 38.4752 49.9994C38.8036 50.0036 39.1319 49.9866 39.4581 49.9486C40.3981 49.8229 41.5681 49.2441 42.2374 48.5732L49.2567 41.5527C49.8296 40.9768 50.091 40.2158 49.9717 39.4592Z" fill="white"/>
</svg>
