<svg width="22" height="22" viewBox="0 0 22 22" fill="none" xmlns="http://www.w3.org/2000/svg">
<path fill-rule="evenodd" clip-rule="evenodd" d="M6.45873 0.065936C7.63059 0.0119883 8.00423 0 10.9893 0C13.9744 0 14.3481 0.0129874 15.5189 0.065936C16.6898 0.118885 17.489 0.305703 18.1883 0.57644C18.9206 0.853172 19.585 1.28575 20.1344 1.84521C20.6939 2.39368 21.1255 3.05703 21.4012 3.79032C21.673 4.48964 21.8588 5.28886 21.9127 6.45773C21.9667 7.63159 21.9787 8.00523 21.9787 10.9893C21.9787 13.9744 21.9657 14.3481 21.9127 15.5199C21.8598 16.6888 21.673 17.488 21.4012 18.1873C21.1255 18.9207 20.6932 19.5852 20.1344 20.1344C19.585 20.6939 18.9206 21.1255 18.1883 21.4012C17.489 21.673 16.6898 21.8588 15.5209 21.9127C14.3481 21.9667 13.9744 21.9787 10.9893 21.9787C8.00423 21.9787 7.63059 21.9657 6.45873 21.9127C5.28986 21.8598 4.49064 21.673 3.79132 21.4012C3.05795 21.1254 2.3935 20.6932 1.84421 20.1344C1.28513 19.5857 0.852487 18.9215 0.57644 18.1883C0.305703 17.489 0.119884 16.6898 0.065936 15.5209C0.0119883 14.3471 0 13.9734 0 10.9893C0 8.00423 0.0129874 7.63059 0.065936 6.45973C0.118885 5.28886 0.305703 4.48964 0.57644 3.79032C0.852895 3.05711 1.28587 2.39299 1.84521 1.84421C2.39372 1.28525 3.0575 0.852615 3.79032 0.57644C4.48964 0.305703 5.28886 0.119884 6.45773 0.065936H6.45873ZM15.43 2.04402C14.2711 1.99107 13.9235 1.98008 10.9893 1.98008C8.05518 1.98008 7.70752 1.99107 6.54864 2.04402C5.47668 2.09297 4.89525 2.27179 4.50762 2.42265C3.99512 2.62245 3.62848 2.85922 3.24385 3.24385C2.87925 3.59856 2.59866 4.03037 2.42265 4.50762C2.27179 4.89525 2.09297 5.47668 2.04402 6.54864C1.99107 7.70752 1.98008 8.05518 1.98008 10.9893C1.98008 13.9235 1.99107 14.2711 2.04402 15.43C2.09297 16.502 2.27179 17.0834 2.42265 17.471C2.59848 17.9476 2.8792 18.3802 3.24385 18.7348C3.59851 19.0995 4.03109 19.3802 4.50762 19.556C4.89525 19.7069 5.47668 19.8857 6.54864 19.9346C7.70752 19.9876 8.05418 19.9986 10.9893 19.9986C13.9245 19.9986 14.2711 19.9876 15.43 19.9346C16.502 19.8857 17.0834 19.7069 17.471 19.556C17.9835 19.3562 18.3502 19.1194 18.7348 18.7348C19.0995 18.3802 19.3802 17.9476 19.556 17.471C19.7069 17.0834 19.8857 16.502 19.9346 15.43C19.9876 14.2711 19.9986 13.9235 19.9986 10.9893C19.9986 8.05518 19.9876 7.70752 19.9346 6.54864C19.8857 5.47668 19.7069 4.89525 19.556 4.50762C19.3562 3.99512 19.1194 3.62848 18.7348 3.24385C18.3801 2.87928 17.9483 2.59869 17.471 2.42265C17.0834 2.27179 16.502 2.09297 15.43 2.04402V2.04402ZM9.58569 14.377C10.3696 14.7034 11.2425 14.7474 12.0552 14.5016C12.868 14.2559 13.5702 13.7356 14.042 13.0296C14.5137 12.3236 14.7258 11.4757 14.6418 10.6308C14.5579 9.78584 14.1832 8.99624 13.5818 8.39685C13.1984 8.01369 12.7348 7.72032 12.2245 7.53783C11.7141 7.35534 11.1696 7.28828 10.6302 7.34149C10.0908 7.39469 9.56986 7.56683 9.10496 7.84551C8.64007 8.12419 8.24274 8.50249 7.94159 8.95316C7.64044 9.40383 7.44296 9.91566 7.36337 10.4518C7.28377 10.988 7.32404 11.5351 7.48127 12.0538C7.63851 12.5725 7.9088 13.0499 8.27269 13.4517C8.63657 13.8534 9.085 14.1694 9.58569 14.377ZM6.99521 6.99521C7.51972 6.47069 8.14241 6.05462 8.82773 5.77076C9.51304 5.48689 10.2476 5.34079 10.9893 5.34079C11.7311 5.34079 12.4656 5.48689 13.1509 5.77076C13.8362 6.05462 14.4589 6.47069 14.9835 6.99521C15.508 7.51972 15.924 8.14241 16.2079 8.82773C16.4918 9.51304 16.6379 10.2476 16.6379 10.9893C16.6379 11.7311 16.4918 12.4656 16.2079 13.1509C15.924 13.8362 15.508 14.4589 14.9835 14.9835C13.9241 16.0428 12.4874 16.6379 10.9893 16.6379C9.49124 16.6379 8.05451 16.0428 6.99521 14.9835C5.9359 13.9241 5.34079 12.4874 5.34079 10.9893C5.34079 9.49124 5.9359 8.05451 6.99521 6.99521V6.99521ZM17.8906 6.182C18.0206 6.05939 18.1247 5.91194 18.1966 5.74839C18.2686 5.58484 18.307 5.40852 18.3096 5.22985C18.3122 5.05119 18.279 4.87381 18.2118 4.70824C18.1446 4.54266 18.0449 4.39225 17.9186 4.2659C17.7922 4.13955 17.6418 4.03983 17.4762 3.97266C17.3106 3.90549 17.1333 3.87222 16.9546 3.87482C16.7759 3.87742 16.5996 3.91585 16.4361 3.98782C16.2725 4.0598 16.1251 4.16385 16.0025 4.29383C15.764 4.54661 15.6335 4.88238 15.6385 5.22985C15.6436 5.57732 15.7839 5.90914 16.0296 6.15487C16.2753 6.40059 16.6071 6.54088 16.9546 6.54594C17.3021 6.55101 17.6378 6.42045 17.8906 6.182V6.182Z" fill="black"/>
</svg>
