<svg width="25" height="24" viewBox="0 0 25 24" fill="none" xmlns="http://www.w3.org/2000/svg">
<path d="M11.5489 1.42705C11.8483 0.505743 13.1517 0.50574 13.4511 1.42705L15.5309 7.82827C15.6648 8.24029 16.0488 8.51925 16.482 8.51925L23.2126 8.51925C24.1814 8.51925 24.5841 9.75887 23.8004 10.3283L18.3552 14.2844C18.0047 14.5391 17.8581 14.9905 17.9919 15.4025L20.0718 21.8037C20.3712 22.725 19.3167 23.4911 18.533 22.9217L13.0878 18.9656C12.7373 18.7109 12.2627 18.7109 11.9122 18.9656L6.46701 22.9217C5.6833 23.4911 4.62882 22.725 4.92817 21.8037L7.00805 15.4025C7.14193 14.9905 6.99527 14.5391 6.64478 14.2844L1.19958 10.3283C0.415862 9.75887 0.81864 8.51925 1.78736 8.51925L8.51801 8.51925C8.95123 8.51925 9.33519 8.24029 9.46906 7.82827L11.5489 1.42705Z" fill="#D9D9D9"/>
</svg>
